<svg fill="#000000" viewBox="0 0 24 24" id="secure" data-name="Flat Line" xmlns="http://www.w3.org/2000/svg" class="icon flat-line"><g id="SVGRepo_bgCarrier" stroke-width="0"></g><g id="SVGRepo_tracerCarrier" stroke-linecap="round" stroke-linejoin="round"></g><g id="SVGRepo_iconCarrier"><path id="secondary" d="M12,21l.88-.38a11,11,0,0,0,6.63-9.26l.43-5.52a1,1,0,0,0-.76-1L12,3,4.82,4.8a1,1,0,0,0-.76,1l.43,5.52a11,11,0,0,0,6.63,9.26Z" style="fill: #2ca9bc; stroke-width: 2;"></path><polyline id="primary" points="9 11 11 13 15 9" style="fill: none; stroke: #000000; stroke-linecap: round; stroke-linejoin: round; stroke-width: 2;"></polyline><path id="primary-2" data-name="primary" d="M12,21l.88-.38a11,11,0,0,0,6.63-9.26l.43-5.52a1,1,0,0,0-.76-1L12,3,4.82,4.8a1,1,0,0,0-.76,1l.43,5.52a11,11,0,0,0,6.63,9.26Z" style="fill: none; stroke: #000000; stroke-linecap: round; stroke-linejoin: round; stroke-width: 2;"></path></g></svg>