<svg height="200px" width="200px" version="1.1" id="Capa_1" xmlns="http://www.w3.org/2000/svg" xmlns:xlink="http://www.w3.org/1999/xlink" viewBox="0 0 326.344 326.344" xml:space="preserve" fill="#000000"><g id="SVGRepo_bgCarrier" stroke-width="0"></g><g id="SVGRepo_tracerCarrier" stroke-linecap="round" stroke-linejoin="round"></g><g id="SVGRepo_iconCarrier"> <g> <path style="fill:#2bb5e3;" d="M230.948,80.014l-67.776,67.776l-37.861-37.861c-4.248-4.248-11.134-4.248-15.382,0 c-4.248,4.248-4.248,11.134,0,15.382l45.552,45.552c2.127,2.127,4.906,3.187,7.691,3.187c2.785,0,5.564-1.061,7.691-3.187 l75.467-75.467c4.248-4.248,4.248-11.134,0-15.382C242.082,75.766,235.196,75.766,230.948,80.014z"></path> <path style="fill:#2bb5e3;" d="M326.344,213.483V0H0v326.344h76.147h250.197V213.483z M76.147,288.27H38.073V38.073H288.27v175.41 H76.147V288.27z M315.466,315.466H87.025V288.27v-63.909H288.27h27.195V315.466z"></path> <path style="fill:#2bb5e3;" d="M156.058,290.392h-23.121c0.865-0.587,1.996-1.316,3.274-2.121c0.936-0.593,1.92-1.207,3.068-1.92 l6.326-3.883c5.58-3.427,9.535-6.494,12.086-9.388c3.981-4.493,6.005-9.72,6.005-15.529c0-7.549-2.872-13.706-8.539-18.297 c-5.493-4.465-12.891-6.728-21.985-6.728c-11.716,0-20.048,3.943-24.77,11.716c-1.664,2.741-2.839,6.07-3.508,9.905 c-0.37,2.17,0.212,4.362,1.599,6.005c1.376,1.637,3.405,2.573,5.553,2.573h5.27c3.987,0,7.5-2.85,8.159-6.641 c0.25-1.42,0.587-2.535,1.017-3.291c0.451-0.805,1.828-3.263,7.419-3.263c2.763,0,4.765,0.685,6.119,2.094 c1.392,1.441,2.067,3.225,2.067,5.455c0,2.845-1.327,5.461-4.041,7.968c-2.007,1.833-6.625,4.993-13.706,9.393 c-7.805,4.824-13.027,9.404-15.833,13.837c-0.397,0.625-0.751,1.251-1.05,1.876c-1.588,2.823-2.725,5.869-3.389,9.067 c-0.435,2.154,0.092,4.335,1.452,5.999c1.376,1.697,3.432,2.66,5.629,2.66h44.894c4.27,0,7.745-3.66,7.745-8.159v-1.169 C163.803,294.047,160.333,290.392,156.058,290.392z"></path> <path style="fill:#2bb5e3;" d="M220.353,276.761c-0.859,0-1.817-1.115-1.817-2.72v-32.591c0-4.498-3.481-8.159-7.751-8.159h-7.647 c-3.671,0-8.093,2.366-10.296,5.504l-23.431,33.543c-2.007,2.883-3.519,7.756-3.519,11.335v1.072c0,1.267,0.299,2.453,0.794,3.525 c1.256,2.73,3.889,4.634,6.957,4.634h21.702c1.273,0,2.312,1.224,2.312,2.72v4.09c0,4.498,3.481,8.159,7.751,8.159h5.379 c4.27,0,7.751-3.66,7.751-8.159v-4.09c0-1.604,0.957-2.72,1.817-2.72c2.894,0,5.374-1.904,6.543-4.634 c0.446-1.05,0.718-2.208,0.718-3.443C227.614,280.378,224.356,276.761,220.353,276.761z M197.656,274.042 c0,1.496-1.033,2.72-2.312,2.72l-9.861-0.065c0.022-0.038,0.049-0.076,0.076-0.114l12.102-18.107v15.567H197.656z"></path> <path style="fill:#2bb5e3;" d="M280.308,250.589c-6.315-2.344-14.566-2.638-21.517,0.141c-1.458,0.582-2.855,1.365-4.177,2.328 v-12.956c0-4.498-3.476-8.159-7.751-8.159h-5.711c-4.27,0-7.751,3.66-7.751,8.159v48.168v11.444c0,4.498,3.481,8.159,7.751,8.159 h5.711c4.275,0,7.751-3.66,7.751-8.159V288.27v-11.46c0-3.775,0.848-6.652,2.524-8.539c1.621-1.828,4.041-2.714,7.392-2.714 c4.417,0,5.439,1.735,5.825,2.382c0.81,1.284,1.229,3.089,1.229,5.363v14.968v11.444c0,4.498,3.481,8.159,7.751,8.159h6.043 c4.27,0,7.751-3.66,7.751-8.159v-25.292c0-1.953-0.033-3.688-0.098-5.183c-0.098-2.176-0.604-6.951-1.898-9.426 c-0.582-1.115-1.333-2.219-2.23-3.28c-0.185-0.218-0.441-0.37-0.636-0.577C286.122,253.618,283.495,251.774,280.308,250.589z"></path> </g> </g></svg>